<svg width="32" height="28" viewBox="0 0 32 28" fill="none" xmlns="http://www.w3.org/2000/svg">
<g clip-path="url(#clip0_4_21)">
<path fill-rule="evenodd" clip-rule="evenodd" d="M29.545 26.0419L27.2356 19.2631C27.135 18.9669 26.9656 18.6888 26.6619 18.6888H25.3694L26.2356 16.9294H26.6619C27.3856 16.9294 27.9319 17.2369 28.3444 17.71C28.6125 18.0169 28.785 18.3644 28.8994 18.6994L32 27.8019H0L2.77375 18.7475C2.90062 18.3419 3.115 17.9194 3.44187 17.5925H3.44875C3.85313 17.19 4.37 16.9294 5.025 16.9294H5.88375L6.82688 18.6888H5.025C4.72062 18.6888 4.53938 18.9744 4.45125 19.2631L2.37375 26.0419H29.545ZM12.73 5.15689C13.2425 4.76627 13.9537 4.74377 14.7137 4.99752C16.1681 5.48252 15.7556 5.52752 17.2313 5.00564C18.1794 4.67002 19.0481 4.76439 19.54 5.36439C19.9931 5.91752 19.9475 6.61314 19.8731 7.28439C19.7681 8.22689 19.4613 9.13314 18.955 10.0038C19.2506 11.8031 19.1181 13.2281 18.8956 14.2563C18.58 15.7169 17.935 16.2263 17.5888 14.2706C17.5531 14.07 17.5356 13.8594 17.5294 13.8C17.3925 12.4088 17.2725 11.0219 15.9312 11.0281C14.6887 11.3006 14.6187 12.205 14.5225 13.6306C14.5162 13.7219 14.495 14.0431 14.4575 14.2706C14.1369 16.2131 13.4506 15.755 13.1594 14.2706C12.9838 13.3725 12.8869 11.9175 12.9613 9.99064C12.5519 9.06002 12.2369 8.12439 12.125 7.15752C12.0319 6.36064 12.0219 5.69627 12.73 5.15627V5.15689ZM17.3556 23.9475C17.0299 24.1783 16.641 24.3031 16.2419 24.305C15.8819 24.3056 15.5206 24.2081 15.2025 24.0063L15.1975 24.0006C14.2044 23.3688 13.2875 22.6725 12.4563 21.9313C11.5956 21.1688 10.8206 20.3469 10.1394 19.4894C9.2175 18.3338 8.4625 17.11 7.885 15.865C7.29563 14.5906 6.89 13.2819 6.6825 11.9881C6.46562 10.6438 6.46188 9.32564 6.68188 8.08252C6.90313 6.83564 7.34563 5.65814 8.02 4.59752C8.29125 4.17627 8.60438 3.76377 8.95938 3.37064C9.29625 2.99002 9.67688 2.63127 10.0938 2.30002C11.0325 1.55252 12.045 0.977518 13.0913 0.591893C14.1513 0.200643 15.255 0.00314287 16.3612 0.0106429C17.4631 0.0187679 18.5513 0.229393 19.5875 0.651268C20.59 1.06689 21.5456 1.66564 22.4169 2.46064C22.7238 2.73877 23.0169 3.05002 23.2913 3.38502C23.5706 3.72439 23.8181 4.07502 24.0356 4.43189C24.7531 5.61877 25.195 6.95064 25.3794 8.35564C25.5675 9.77939 25.4938 11.2856 25.1825 12.7925C24.7131 15.0725 23.7319 17.2738 22.3731 19.1981C21.0356 21.0925 19.3194 22.7381 17.3556 23.9475ZM16.5094 22.5638C16.3556 22.6763 16.1469 22.6913 15.9762 22.5819C14.1312 21.4075 12.5794 19.9969 11.3625 18.4663C9.68188 16.3575 8.6225 14.0194 8.26062 11.7675C7.89187 9.48439 8.23625 7.28877 9.3725 5.50252C9.82063 4.79627 10.3925 4.15314 11.09 3.59877C12.6938 2.32002 14.5256 1.64627 16.3481 1.65939C18.1056 1.67189 19.8394 2.32814 21.3375 3.69502C21.8644 4.17314 22.3075 4.72189 22.6694 5.31689C23.8912 7.32877 24.1544 9.89502 23.6162 12.4963C22.7787 16.5713 20.0875 20.3919 16.5094 22.5638Z" fill="white"/>
</g>
<defs>
<clipPath id="clip0_4_21">
<rect width="32" height="27.8125" fill="white"/>
</clipPath>
</defs>
</svg>
