<svg width="40" height="40" viewBox="0 0 40 40" fill="none" xmlns="http://www.w3.org/2000/svg">
<path d="M2.08333 5.83333L5.41667 2.08333L10 0.833333L17.0833 2.08333L19.5833 3.75L25.8333 0.833333L35 2.08333L38.75 8.33333V22.5L35.4167 30.8333L29.5833 38.75L26.6667 37.9167L23.3333 30.8333L21.25 27.5H18.3333L14.5833 36.25L11.6667 38.75L9.16667 37.0833L3.75 25.4167L1.25 12.0833L2.08333 5.83333Z" fill="white"/>
<path d="M19.4337 2.5762C21.8642 0.937927 25.429 -0.0597255 28.8345 0.00277428C32.0345 0.0605866 35.1243 1.0473 37.0806 3.30042C37.7259 4.0426 38.2415 4.89885 38.6532 5.86369C39.0579 6.81135 39.3618 7.85666 39.5891 8.9965C40.0321 11.2207 40.097 13.6988 39.879 16.2535C39.6384 19.0683 39.0556 21.9824 38.2602 24.755C37.6821 26.7699 35.9665 31.7824 33.7571 35.3816C32.3048 37.7464 30.6009 39.537 28.7564 39.6542C27.8579 39.712 27.0337 39.3691 26.2798 38.6425C25.6189 38.0042 25.0119 37.0534 24.4564 35.8027L24.4408 35.7722L23.7212 33.9495C23.6204 33.6933 23.4962 33.3527 23.3611 32.9824C22.6673 31.0792 21.6486 28.2847 20.1767 27.9292C18.9447 27.6324 17.9603 30.055 17.3541 31.5456C17.2806 31.7269 17.2119 31.8956 17.0853 32.1878C17.0189 32.3402 16.872 32.7027 16.7072 33.1105C15.7236 35.5386 14.0588 39.6495 11.6885 39.7206C10.8697 39.7456 10.0674 39.3886 9.28143 38.6675C8.59315 38.0355 7.90097 37.1034 7.20566 35.887C6.75253 35.1034 6.27363 34.1847 5.78301 33.1613C5.31426 32.1808 4.83613 31.1003 4.3627 29.9441C3.49395 27.8199 2.45099 25.0808 1.60958 22.148C0.758805 19.1793 0.101776 15.9801 0.0095886 12.9457C-0.0474425 11.0496 0.148651 9.20899 0.632243 7.54025C1.09396 5.94807 1.8174 4.51213 2.83145 3.32933C4.82129 1.01136 7.44081 0.0769928 10.19 0.0191805C13.3775 -0.0472256 16.7322 1.08011 19.4337 2.5762ZM3.80333 12.2738C4.13536 10.3512 4.81426 8.5629 5.9291 7.07775C6.94706 5.72229 8.31737 4.6301 10.1033 3.93245L10.6721 5.38791C9.1705 5.97463 8.02362 6.88556 7.17675 8.01369C6.22285 9.28399 5.63691 10.8434 5.34473 12.5371L3.80333 12.2738ZM33.8978 15.6207H33.822C33.822 14.9957 33.5884 14.4504 33.122 13.984C32.6556 13.5176 32.1103 13.2848 31.486 13.2848V13.2082C32.1103 13.2082 32.6556 12.9746 33.122 12.5074C33.5884 12.0387 33.822 11.4934 33.822 10.8715H33.8978C33.8978 11.4957 34.1314 12.041 34.5978 12.5074C35.0642 12.9738 35.6095 13.2074 36.2345 13.2074V13.2832C35.6095 13.2832 35.0642 13.5168 34.5978 13.9832C34.1314 14.4504 33.8978 14.9957 33.8978 15.6207ZM28.4087 17.2918H28.347C28.347 16.7949 28.1611 16.359 27.7892 15.9879C27.4181 15.616 26.9837 15.4293 26.4853 15.4293V15.3683C26.9822 15.3683 27.4181 15.1816 27.7892 14.8105C28.1611 14.4371 28.347 14.0035 28.347 13.5074H28.4087C28.4087 14.0043 28.5946 14.4402 28.9665 14.8113C29.3376 15.1832 29.772 15.3699 30.2704 15.3699V15.4308C29.7736 15.4308 29.3376 15.6176 28.9665 15.9887C28.5939 16.359 28.4087 16.7933 28.4087 17.2918ZM29.7696 11.7605H29.6509C29.6509 10.7887 29.2868 9.93712 28.5595 9.20978C27.8314 8.48165 26.9822 8.11837 26.0079 8.11837V7.99962C26.9806 7.99962 27.8314 7.63556 28.5595 6.90666C29.2868 6.17697 29.6509 5.32698 29.6509 4.35667H29.7696C29.7696 5.32932 30.1337 6.18088 30.861 6.90822C31.5884 7.63556 32.4384 7.99962 33.4118 7.99962V8.11837C32.4392 8.11837 31.5884 8.48243 30.861 9.20978C30.1337 9.93712 29.7696 10.7887 29.7696 11.7605ZM20.7876 3.56214C22.3408 4.67542 22.8603 5.20979 23.7728 6.39728C22.5509 5.99963 21.0455 5.3426 19.8306 4.62854C19.5791 4.4801 19.3353 4.32307 19.083 4.1762C16.5181 2.67933 13.2635 1.51449 10.2205 1.57855C7.89081 1.62777 5.67988 2.40824 4.01817 4.34417C3.15255 5.35354 2.53146 6.5926 2.13068 7.97462C1.69318 9.48321 1.51661 11.1621 1.56896 12.9027C1.65568 15.7754 2.29083 18.848 3.11427 21.7199C3.94786 24.6277 4.96348 27.298 5.80566 29.3574C6.26035 30.4683 6.72675 31.5206 7.19003 32.4886C7.65331 33.4566 8.11425 34.3378 8.55643 35.1042L8.55956 35.1105C9.17362 36.1855 9.76737 36.9933 10.3392 37.5183C10.8158 37.955 11.2525 38.1737 11.6455 38.162C12.99 38.1214 14.4158 34.6019 15.258 32.523C15.3838 32.2113 15.4963 31.9347 15.6541 31.5699C15.6861 31.4972 15.79 31.2409 15.9048 30.9581C16.7033 28.9933 18.0017 25.8003 20.5439 26.4128C22.829 26.9644 24.0189 30.2277 24.829 32.4503C24.9494 32.78 25.0595 33.0831 25.1767 33.3808L25.8962 35.2034L25.8947 35.2042C26.3611 36.248 26.8501 37.023 27.3626 37.5175C27.7876 37.9277 28.2197 38.123 28.6587 38.0956C29.9001 38.0159 31.2173 36.5339 32.4235 34.5683C34.5415 31.1191 36.1962 26.2761 36.7556 24.3269C37.5251 21.6449 38.0884 18.8332 38.3196 16.1254C38.5259 13.7074 38.4673 11.3762 38.054 9.30196C37.8454 8.25509 37.5727 7.30978 37.2165 6.47463C36.8665 5.65666 36.4352 4.93713 35.9001 4.32151C34.2649 2.4387 31.6009 1.61214 28.8103 1.56136C25.9267 1.50902 22.9384 2.27699 20.7876 3.56214Z" fill="black"/>
</svg>
